<?xml version="1.0" standalone="no"?>
<!DOCTYPE svg PUBLIC "-//W3C//DTD SVG 20010904//EN"
 "http://www.w3.org/TR/2001/REC-SVG-20010904/DTD/svg10.dtd">
<svg version="1.0" xmlns="http://www.w3.org/2000/svg"
 width="558.000000pt" height="217.000000pt" viewBox="0 0 558.000000 217.000000"
 preserveAspectRatio="xMidYMid meet">

<g transform="translate(0.000000,217.000000) scale(0.100000,-0.100000)"
fill="#000000" stroke="none">
<path d="M0 1085 l0 -1085 2790 0 2790 0 0 1085 0 1085 -2790 0 -2790 0 0
-1085z m835 606 c-3 -2 3 -10 12 -16 16 -12 16 -14 0 -29 -9 -10 -17 -13 -17
-7 0 5 5 13 11 17 8 4 7 9 -2 15 -8 4 -18 1 -25 -9 -10 -14 -9 -21 4 -37 17
-20 17 -20 -5 -1 -18 15 -20 22 -12 33 16 19 -1 16 -24 -4 -11 -10 -17 -13
-14 -7 4 7 -3 12 -18 12 -14 0 -22 -4 -19 -9 3 -5 1 -9 -5 -9 -6 0 -16 10 -22
23 -11 20 -11 21 4 8 11 -8 17 -9 17 -3 0 7 7 9 17 5 10 -4 14 -2 9 5 -4 7 5
9 30 5 22 -4 35 -2 31 3 -3 5 3 10 13 10 11 0 17 -2 15 -5z m108 0 c20 -1 27
-6 27 -21 0 -11 5 -20 12 -20 6 0 8 -3 5 -6 -4 -4 -13 -1 -22 6 -12 10 -15 10
-15 -3 0 -23 -28 -29 -40 -7 -6 11 -6 21 -1 25 5 3 11 -5 14 -17 3 -22 4 -22
12 -3 5 11 13 23 19 28 6 4 -5 6 -24 5 -22 -2 -40 -10 -48 -23 -12 -18 -13
-18 -8 -1 4 11 0 23 -11 31 -15 11 -13 13 17 10 19 -2 47 -3 63 -4z m75 -27
c6 -1 12 2 12 7 0 4 7 6 15 3 24 -10 17 -20 -14 -22 -17 -1 -34 5 -42 15 -12
15 -12 16 1 8 8 -5 21 -10 28 -11z m-336 -8 c3 2 8 -2 12 -11 4 -13 2 -14 -14
-5 -15 8 -26 7 -44 -5 -14 -9 -24 -22 -22 -28 1 -7 1 -9 -1 -5 -2 4 -11 4 -19
1 -11 -4 -12 -9 -4 -18 8 -9 8 -15 0 -20 -5 -3 -10 -2 -10 3 0 5 -14 9 -32 10
-20 0 -27 -2 -19 -7 9 -6 10 -11 2 -15 -17 -11 -25 21 -10 37 12 12 15 12 25
-1 8 -11 13 -12 18 -4 4 7 2 12 -3 12 -6 0 -11 5 -11 11 0 6 8 8 19 4 11 -3
24 1 32 12 13 16 12 17 -4 4 -9 -8 -20 -11 -24 -8 -3 4 7 11 23 18 16 6 36 15
44 19 8 4 20 4 26 -1 6 -5 13 -6 16 -3z m425 -20 c0 -9 -14 -13 -38 -13 -27 0
-36 3 -32 13 3 8 9 12 13 9 5 -3 11 -1 14 4 8 13 43 2 43 -13z m-417 -22 c0
-4 -7 -3 -16 0 -9 4 -23 1 -32 -6 -13 -11 -14 -10 -3 10 10 18 15 20 31 12 11
-6 20 -13 20 -16z m476 4 c4 4 2 -1 -6 -11 -13 -18 -14 -18 -20 -1 -5 12 -9
14 -14 6 -4 -7 -11 -12 -17 -12 -5 0 -1 8 9 19 14 15 19 16 28 5 6 -8 15 -10
20 -6z m-441 -8 c-3 -5 -12 -10 -18 -10 -7 0 -6 4 3 10 19 12 23 12 15 0z
m362 -7 c3 -7 -4 -9 -16 -6 -12 3 -18 9 -15 15 7 11 26 6 31 -9z m-87 3 c0 -2
-7 -7 -16 -10 -8 -3 -12 -2 -9 4 6 10 25 14 25 6z m-337 -21 c-3 -9 -8 -14
-10 -11 -3 3 -2 9 2 15 9 16 15 13 8 -4z m541 -10 c-5 -11 -2 -13 12 -8 12 4
15 3 10 -5 -10 -16 -36 -15 -36 1 0 12 9 27 16 27 2 0 1 -7 -2 -15z m-697 -42
c-4 -3 -13 -1 -21 6 -11 9 -15 9 -19 -1 -2 -7 -8 -10 -12 -6 -4 4 -1 13 6 21
12 12 15 12 26 -2 10 -14 11 -12 7 9 -5 25 -4 25 7 2 7 -12 9 -25 6 -29z m143
17 c0 -5 -5 -10 -11 -10 -5 0 -7 5 -4 10 3 6 8 10 11 10 2 0 4 -4 4 -10z m84
-6 c3 -8 2 -12 -4 -9 -6 3 -10 10 -10 16 0 14 7 11 14 -7z m321 6 c3 -6 -1 -7
-9 -4 -18 7 -21 14 -7 14 6 0 13 -4 16 -10z m191 -6 c-4 -12 -2 -15 9 -10 17
6 20 -11 5 -34 -8 -13 -10 -12 -10 3 0 16 -10 21 -37 18 -6 -1 -15 4 -19 10
-4 7 -1 10 7 7 8 -3 20 1 27 9 18 18 25 16 18 -3z m-91 -12 c-3 -3 -11 0 -18
7 -9 10 -8 11 6 5 10 -3 15 -9 12 -12z m-705 -11 c0 -6 -5 -13 -11 -17 -8 -4
-7 -9 2 -15 10 -6 6 -8 -11 -5 -14 3 -26 5 -27 5 -5 2 32 39 40 40 4 1 7 -3 7
-8z m35 -1 c3 -5 -1 -10 -10 -10 -9 0 -13 5 -10 10 3 6 8 10 10 10 2 0 7 -4
10 -10z m816 -53 c-10 -9 -11 -8 -5 8 7 17 5 18 -7 8 -12 -10 -15 -8 -16 8 -1
11 2 17 8 14 5 -4 9 0 10 7 0 7 5 3 11 -10 9 -17 8 -26 -1 -35z m-110 20 c-10
-9 -11 -8 -5 6 3 10 9 15 12 12 3 -3 0 -11 -7 -18z m-704 -3 c-3 -3 -12 -4
-19 -1 -8 3 -5 6 6 6 11 1 17 -2 13 -5z m-106 -40 c-5 -16 -10 -21 -10 -12 -1
18 10 51 15 45 2 -1 -1 -16 -5 -33z m952 6 c-8 -29 -21 -25 -15 5 2 14 8 23
12 20 5 -3 6 -14 3 -25z m-913 10 c0 -5 -2 -10 -4 -10 -3 0 -8 5 -11 10 -3 6
-1 10 4 10 6 0 11 -4 11 -10z m37 -6 c3 -8 0 -21 -7 -27 -10 -9 -11 -9 -6 1 4
7 2 19 -4 27 -9 11 -9 15 -1 15 6 0 14 -7 18 -16z m-44 -35 c-8 -8 -13 -7 -18
2 -5 8 -4 10 3 5 7 -4 12 -2 12 5 0 7 3 9 7 6 4 -4 2 -12 -4 -18z m966 -26 c9
-6 16 -15 16 -20 1 -4 9 -23 18 -40 10 -18 13 -33 7 -33 -5 0 -13 12 -16 27
-7 26 -7 26 -15 5 -9 -23 -24 -29 -34 -12 -4 6 -1 9 6 8 7 -2 14 6 16 17 1 11
0 14 -3 8 -3 -7 -10 -13 -15 -13 -13 0 -7 23 11 38 9 8 9 11 2 7 -9 -5 -15 1
-19 14 -3 11 -9 18 -14 15 -5 -3 -6 2 -2 12 5 15 7 14 16 -2 6 -11 18 -24 26
-31z m-226 -133 l98 -170 -98 -167 -98 -168 -192 -3 -192 -2 -25 37 c-13 21
-58 97 -100 170 l-77 132 98 171 97 170 196 0 195 0 98 -170z m-787 133 c16
-21 18 -43 4 -43 -5 0 -7 7 -4 15 4 8 1 15 -5 15 -6 0 -11 -10 -11 -22 0 -13
-3 -34 -7 -47 -4 -17 -3 -22 5 -17 8 4 12 0 12 -10 0 -14 -3 -15 -12 -6 -14
14 -32 16 -23 3 3 -6 -4 -15 -15 -21 -11 -6 -20 -18 -20 -27 0 -13 3 -13 18
-2 14 11 15 11 5 -1 -9 -10 -9 -18 -1 -34 10 -18 9 -19 -4 -8 -13 10 -17 10
-21 -2 -3 -7 0 -19 6 -25 9 -9 8 -11 -5 -6 -20 8 -21 5 -12 -20 6 -13 9 -14
16 -3 6 8 7 5 2 -12 -4 -14 -11 -26 -15 -28 -19 -7 4 -92 24 -92 5 0 5 -4 2
-10 -3 -5 -1 -10 5 -10 6 0 8 -5 5 -10 -4 -6 -10 -8 -15 -5 -5 3 -11 1 -14 -4
-3 -5 8 -21 25 -35 17 -14 27 -26 22 -26 -5 0 -14 5 -21 12 -9 9 -9 5 0 -15 7
-15 17 -27 21 -27 5 0 5 6 1 13 -5 8 -2 8 9 -2 18 -15 23 -26 7 -16 -5 3 -10
1 -10 -6 0 -7 -3 -9 -7 -6 -3 4 -12 2 -19 -4 -10 -8 -14 -2 -19 25 -4 19 -4
39 0 45 3 6 0 9 -8 5 -18 -7 -30 55 -14 74 8 10 7 12 -3 10 -18 -4 -20 73 -2
87 15 12 5 48 -10 39 -14 -9 1 37 18 54 8 7 14 19 14 25 0 7 -7 3 -15 -7 -8
-11 -15 -15 -15 -9 0 7 5 15 10 18 6 4 8 16 4 27 -4 14 -2 18 5 14 7 -5 10 1
8 16 -1 16 3 23 16 23 26 0 43 33 23 41 -9 3 -16 11 -16 16 0 6 7 8 15 4 8 -3
15 -1 15 3 0 5 -6 12 -12 14 -8 3 -6 6 5 6 9 1 17 6 17 12 0 5 -5 7 -12 3 -7
-4 -8 -3 -4 4 10 16 17 15 32 -5z m974 -1 c0 -13 -12 -22 -22 -16 -10 6 -1 24
13 24 5 0 9 -4 9 -8z m-915 -12 c3 -6 -1 -7 -9 -4 -18 7 -21 14 -7 14 6 0 13
-4 16 -10z m-105 -54 c0 -2 -7 -7 -16 -10 -8 -3 -12 -2 -9 4 6 10 25 14 25 6z
m1045 -46 c-3 -5 -11 -10 -16 -10 -6 0 -7 5 -4 10 3 6 11 10 16 10 6 0 7 -4 4
-10z m86 -74 c9 -36 14 -66 10 -66 -3 0 -6 -18 -6 -40 0 -22 3 -40 7 -40 10 0
-3 -33 -16 -43 -8 -6 -7 -10 2 -14 15 -6 16 -33 1 -33 -6 0 -9 -7 -6 -15 9
-22 -13 -30 -31 -11 -11 10 -12 16 -4 16 7 0 12 -4 12 -10 0 -5 4 -10 9 -10 5
0 7 9 4 21 -4 13 -11 18 -22 15 -11 -4 -10 -2 3 9 17 13 15 19 -5 17 -14 -2 0
43 14 46 9 2 17 10 17 18 0 8 -7 14 -16 12 -23 -4 -27 14 -9 37 15 19 16 19 5
-3 -7 -13 -9 -26 -6 -29 8 -8 24 40 19 55 -3 6 0 12 6 12 8 0 8 4 -1 14 -7 7
-19 11 -25 9 -7 -3 -13 -1 -13 5 0 6 6 13 13 15 7 3 4 6 -6 6 -10 1 -15 6 -12
11 4 6 12 7 18 3 7 -4 6 0 -2 10 -9 11 -10 17 -2 17 6 0 11 7 11 16 0 13 -3
14 -14 5 -11 -9 -16 -9 -22 0 -4 8 -3 9 4 5 7 -4 12 -1 12 9 0 12 4 14 17 6
10 -5 24 -37 34 -75z m-1108 29 c-3 -9 -8 -14 -10 -11 -3 3 -2 9 2 15 9 16 15
13 8 -4z m1563 -23 c15 -10 34 -47 34 -66 0 -22 -66 -22 -74 -1 -3 9 -18 15
-35 15 -36 0 -47 -28 -37 -85 6 -32 10 -35 41 -35 24 0 35 5 35 15 0 10 11 15
35 15 42 0 47 -22 14 -64 -18 -23 -27 -26 -85 -26 -91 0 -104 15 -104 119 0
74 2 81 26 100 20 16 41 21 83 21 31 0 61 -4 67 -8z m132 -39 l20 -48 20 48
c20 43 24 47 57 47 19 0 35 -3 35 -6 0 -4 -18 -39 -40 -79 -29 -52 -40 -84
-40 -114 0 -42 -1 -42 -32 -39 -32 3 -33 5 -38 53 -4 32 -19 74 -44 118 l-38
67 40 0 c38 0 40 -2 60 -47z m330 31 c28 -19 31 -78 5 -93 -17 -9 -17 -10 0
-16 12 -5 17 -18 17 -45 0 -59 -18 -70 -116 -70 l-84 0 0 120 0 120 78 0 c54
0 84 -5 100 -16z m232 -9 c0 -24 -3 -25 -55 -25 -52 0 -55 -1 -55 -25 0 -23 3
-25 50 -25 43 0 50 -3 50 -20 0 -17 -7 -20 -50 -20 -47 0 -50 -2 -50 -25 0
-24 3 -25 55 -25 52 0 55 -1 55 -25 0 -25 -1 -25 -90 -25 l-90 0 0 120 0 120
90 0 c89 0 90 0 90 -25z m220 5 c27 -27 28 -95 1 -112 -20 -12 -20 -12 0 -26
12 -9 19 -25 19 -48 0 -32 -2 -34 -35 -34 -32 0 -35 2 -35 30 0 28 -3 30 -35
30 -32 0 -35 -2 -35 -30 0 -28 -3 -30 -35 -30 l-35 0 0 120 0 120 85 0 c72 0
88 -3 105 -20z m222 3 c10 -9 18 -27 18 -40 0 -19 -5 -23 -30 -23 -16 0 -30 4
-30 9 0 13 -30 22 -51 16 -38 -12 -20 -32 34 -38 58 -7 87 -32 87 -76 0 -50
-33 -71 -112 -71 -61 0 -84 13 -94 53 -6 25 -4 27 26 27 19 0 38 -7 45 -16 8
-12 20 -15 38 -10 57 14 16 46 -59 46 -49 0 -72 82 -34 120 26 26 134 29 162
3z m238 -1 c16 -13 24 -32 28 -70 11 -118 -22 -158 -124 -150 -81 7 -94 24
-94 119 0 72 2 79 26 98 36 28 131 29 164 3z m221 6 c0 -10 2 -10 6 0 3 8 33
12 99 12 l94 0 0 -30 c0 -27 -3 -30 -30 -30 l-30 0 0 -90 0 -90 -35 0 -35 0 0
90 0 90 -30 0 c-16 0 -30 3 -30 8 0 4 -25 5 -55 4 -50 -4 -55 -6 -55 -28 0
-22 4 -24 50 -24 47 0 50 -2 50 -25 0 -23 -3 -25 -50 -25 l-50 0 0 -45 c0 -45
0 -45 -35 -45 l-35 0 0 120 0 120 85 0 c61 0 85 -4 86 -12z m394 -13 c19 -18
25 -35 25 -68 0 -63 -16 -79 -84 -85 -54 -4 -56 -6 -56 -33 0 -26 -4 -29 -30
-29 l-30 0 0 120 0 120 75 0 c67 0 79 -3 100 -25z m225 -77 c17 -57 33 -111
36 -120 4 -15 -1 -18 -29 -18 -26 0 -36 5 -40 20 -4 16 -14 20 -47 20 -33 0
-43 -4 -47 -20 -4 -15 -14 -20 -40 -20 -28 0 -33 3 -29 18 3 9 19 63 36 120
l32 102 48 0 48 0 32 -102z m195 17 l30 -80 3 83 3 82 29 0 30 0 0 -120 0
-120 -54 0 -53 0 -31 83 -31 82 0 -82 -1 -83 -35 0 -35 0 0 120 0 121 57 -3
57 -3 31 -80z m285 78 c0 -5 15 -59 34 -120 l34 -113 -33 0 c-25 0 -35 5 -40
20 -5 16 -15 20 -51 20 -37 0 -44 -3 -44 -20 0 -16 -7 -20 -35 -20 -19 0 -35
4 -35 8 0 11 61 214 67 225 2 4 26 7 54 7 27 0 49 -3 49 -7z m206 -68 l22 -70
21 73 22 72 54 0 55 0 0 -120 0 -120 -35 0 -35 0 -1 73 -1 72 -25 -73 c-24
-71 -26 -73 -56 -70 -28 3 -32 8 -59 83 l-28 80 5 -82 5 -83 -35 0 -35 0 0
121 0 120 52 -3 52 -3 22 -70z m354 71 c0 -3 31 -107 66 -218 4 -15 -1 -18
-29 -18 -26 0 -36 5 -40 20 -4 16 -14 20 -47 20 -33 0 -43 -4 -47 -20 -4 -15
-14 -20 -39 -20 -19 0 -34 3 -34 6 0 6 51 177 65 222 4 11 105 19 105 8z
m-4895 -106 c3 -5 1 -10 -4 -10 -6 0 -11 5 -11 10 0 6 2 10 4 10 3 0 8 -4 11
-10z m28 -50 c-3 -12 -8 -19 -11 -16 -5 6 5 36 12 36 2 0 2 -9 -1 -20z m1111
-142 c-5 -8 -2 -9 9 -5 13 5 17 1 17 -16 0 -18 -2 -19 -10 -7 -9 13 -12 13
-23 -1 -6 -9 -18 -14 -26 -11 -8 3 -11 0 -7 -6 3 -6 3 -13 -2 -16 -5 -3 -8 8
-8 24 0 25 2 27 18 19 15 -8 18 -6 18 11 0 11 5 20 11 20 5 0 7 -5 3 -12z m6
-63 c0 -14 -5 -25 -11 -25 -5 0 -7 4 -4 10 4 6 -1 7 -12 3 -17 -6 -17 -5 1 15
24 28 26 27 26 -3z m-1047 -19 c-9 -13 -10 -66 -2 -66 15 0 44 -37 47 -60 l4
-25 -21 22 c-12 12 -21 26 -21 31 0 5 -7 15 -15 22 -9 7 -13 15 -10 18 2 3 -3
11 -13 18 -15 12 -15 15 -2 24 10 6 11 10 3 10 -24 0 -13 15 12 16 16 1 22 -2
18 -10z m1030 -13 c4 -2 -1 -15 -10 -28 -10 -12 -21 -21 -25 -19 -3 2 -4 -4
-1 -15 3 -11 -2 -21 -11 -24 -18 -7 -19 -3 -10 43 5 22 9 28 15 18 7 -10 11
-10 21 0 6 6 7 12 2 12 -6 0 -19 7 -30 15 -18 14 -17 15 11 9 17 -4 33 -9 38
-11z m-993 3 c0 -2 -7 -7 -16 -10 -8 -3 -12 -2 -9 4 6 10 25 14 25 6z m930
-37 c0 -3 -7 -6 -15 -6 -8 0 -13 3 -10 5 3 3 -1 12 -8 20 -11 13 -9 14 11 1
12 -8 22 -16 22 -20z m-875 12 c3 -5 2 -12 -3 -15 -5 -3 -9 1 -9 9 0 17 3 19
12 6z m-61 -16 c-4 -8 -11 -12 -16 -9 -6 4 -5 10 3 15 19 12 19 11 13 -6z m44
-40 c15 -32 15 -32 -3 -32 -10 0 -13 6 -10 18 4 11 -1 22 -12 28 -15 9 -15 10
-2 11 9 0 21 -11 27 -25z m884 -33 c-2 -7 -12 -10 -23 -7 -12 4 -21 1 -25 -9
-3 -9 -12 -16 -20 -16 -10 0 -8 6 6 20 11 11 27 20 36 20 13 0 14 3 5 13 -8
10 -7 17 2 26 9 9 13 7 18 -11 3 -13 4 -29 1 -36z m-845 -7 c-4 -8 -2 -17 3
-20 5 -3 7 -12 3 -20 -3 -9 1 -15 10 -15 9 0 18 -4 21 -8 4 -6 -29 -9 -55 -3
-9 2 -20 31 -11 30 4 -1 14 -1 22 0 12 1 12 4 -2 12 -15 8 -16 13 -5 24 16 18
21 19 14 0z m-37 -9 c0 -3 -4 -8 -10 -11 -5 -3 -10 -1 -10 4 0 6 5 11 10 11 6
0 10 -2 10 -4z m780 -11 c7 -9 8 -15 2 -15 -5 0 -12 7 -16 15 -3 8 -4 15 -2
15 2 0 9 -7 16 -15z m84 -7 c-3 -4 -9 -8 -15 -8 -5 0 -9 4 -9 8 0 5 7 9 15 9
8 0 12 -4 9 -9z m-34 -23 c0 -9 -6 -12 -15 -9 -8 4 -12 10 -9 15 8 14 24 10
24 -6z m-100 -37 c0 -18 -17 -7 -29 19 -13 28 -13 28 8 9 12 -11 21 -23 21
-28z m66 6 c-6 -7 -15 -10 -20 -7 -4 3 -2 9 5 14 11 7 11 9 1 9 -7 0 -10 4 -7
10 4 6 11 5 19 -2 9 -9 10 -15 2 -24z m-26 -16 c0 -14 -15 -8 -27 11 -15 24
-3 38 14 15 7 -10 13 -21 13 -26z m-666 -13 c11 -8 17 -17 14 -20 -2 -3 -15 4
-28 15 -13 11 -29 20 -37 20 -8 0 -11 5 -8 10 7 11 23 4 59 -25z m11 17 c-3
-3 -11 0 -18 7 -9 10 -8 11 6 5 10 -3 15 -9 12 -12z m558 3 c-3 -9 -8 -14 -10
-11 -3 3 -2 9 2 15 9 16 15 13 8 -4z m30 -29 c-3 -6 3 -3 14 7 18 16 21 16 26
2 4 -8 2 -15 -4 -15 -6 0 -17 -7 -26 -15 -8 -8 -19 -12 -24 -9 -6 3 -19 -2
-29 -11 -11 -10 -26 -14 -38 -11 -10 4 -30 2 -43 -4 -23 -10 -23 -10 4 -5 15
3 27 2 27 -3 0 -10 -10 -12 -70 -15 -25 -1 -48 -6 -52 -12 -5 -7 -8 -6 -8 1 0
5 7 19 16 30 8 10 12 13 8 5 -5 -10 -1 -11 16 -6 15 5 20 4 16 -4 -4 -6 -1
-11 8 -11 20 0 13 32 -10 41 -14 6 -15 8 -3 8 9 1 19 -2 23 -6 11 -11 86 -9
82 2 -2 6 -8 9 -14 8 -5 -1 -13 4 -16 13 -4 12 -2 12 14 4 26 -14 30 -13 23 8
-7 16 -6 16 11 0 23 -24 35 -23 29 2 -4 16 -2 19 11 14 9 -3 13 -11 9 -18z
m-533 -16 c0 -5 -5 -10 -11 -10 -5 0 -7 5 -4 10 3 6 8 10 11 10 2 0 4 -4 4
-10z m40 -14 c0 -2 -9 -6 -20 -9 -11 -3 -18 -1 -14 4 5 9 34 13 34 5z m43 -3
c-7 -2 -19 -2 -25 0 -7 3 -2 5 12 5 14 0 19 -2 13 -5z m57 -12 c0 -4 -6 -13
-12 -20 -10 -11 -10 -12 -1 -7 7 4 23 1 35 -5 21 -11 22 -11 9 5 -12 14 -12
17 0 14 7 -2 20 -9 27 -15 16 -16 32 -17 32 -3 0 6 5 10 11 10 5 0 7 -4 4 -10
-9 -15 2 -12 31 7 25 16 26 16 22 -3 -3 -16 -13 -19 -63 -21 -69 -2 -165 15
-165 29 0 6 -6 8 -13 5 -8 -3 -20 -1 -28 5 -10 6 3 8 39 5 41 -3 52 -1 48 9
-3 8 0 11 10 7 7 -3 14 -8 14 -12z"/>
<path d="M581 1260 c-50 -88 -91 -165 -91 -170 0 -6 21 -47 46 -91 l47 -81 86
86 86 86 89 0 c85 0 89 1 116 30 37 39 80 41 109 4 28 -35 26 -69 -4 -99 -33
-34 -70 -32 -105 5 -27 29 -32 30 -112 30 l-83 0 -84 -84 -83 -84 34 -58 34
-59 67 -3 c67 -3 67 -3 67 24 0 16 -10 34 -25 46 -51 40 -21 128 43 128 28 0
72 -31 72 -51 0 -6 46 -9 122 -7 l121 3 48 80 c27 44 48 86 49 93 0 7 -28 62
-62 122 l-63 109 -45 1 c-41 0 -51 -5 -85 -40 -33 -33 -39 -46 -37 -75 4 -44
-25 -75 -71 -75 -42 0 -70 29 -70 70 0 45 29 72 75 68 33 -2 44 3 81 40 37 36
49 42 85 42 23 0 42 3 42 6 0 3 -8 19 -17 35 l-18 30 -115 -3 -115 -3 -3 -65
-3 -65 -67 -68 c-57 -58 -66 -72 -64 -98 7 -61 -63 -100 -115 -64 -66 46 -10
154 67 130 18 -6 34 5 86 56 64 63 64 63 64 121 l0 58 -54 0 -53 0 -92 -160z"/>
<path d="M840 1225 c-26 -32 13 -81 48 -59 34 22 22 74 -18 74 -10 0 -23 -7
-30 -15z"/>
<path d="M586 1148 c-19 -11 -21 -49 -4 -66 18 -18 46 -14 58 8 22 41 -14 80
-54 58z"/>
<path d="M989 1099 c-23 -23 -21 -37 8 -56 19 -13 24 -12 42 6 17 17 19 26 12
40 -16 29 -39 33 -62 10z"/>
<path d="M791 926 c-7 -8 -11 -25 -9 -38 2 -18 9 -23 32 -23 36 0 56 27 40 53
-14 22 -48 27 -63 8z"/>
<path d="M868 848 c-16 -16 -28 -40 -28 -54 l0 -25 106 3 107 3 29 53 30 52
-109 -1 c-106 -1 -108 -2 -135 -31z"/>
<path d="M295 1280 c-3 -5 1 -10 10 -10 9 0 13 5 10 10 -3 6 -8 10 -10 10 -2
0 -7 -4 -10 -10z"/>
<path d="M1431 1204 c0 -11 3 -14 6 -6 3 7 2 16 -1 19 -3 4 -6 -2 -5 -13z"/>
<path d="M1420 1024 c0 -8 5 -12 10 -9 6 3 10 10 10 16 0 5 -4 9 -10 9 -5 0
-10 -7 -10 -16z"/>
<path d="M2254 1155 c-9 -24 10 -39 41 -31 18 5 25 12 23 24 -4 23 -56 29 -64
7z"/>
<path d="M2250 1061 c0 -27 14 -34 51 -26 44 10 35 39 -14 43 -31 3 -37 0 -37
-17z"/>
<path d="M2700 1129 c0 -28 2 -30 33 -27 27 2 33 8 35 31 3 25 1 27 -32 27
-33 0 -36 -2 -36 -31z"/>
<path d="M3160 1100 l0 -61 38 3 37 3 0 55 0 55 -37 3 -38 3 0 -61z"/>
<path d="M3780 1130 c0 -29 2 -31 33 -28 27 2 32 7 32 28 0 21 -5 26 -32 28
-31 3 -33 1 -33 -28z"/>
<path d="M4031 1127 c-17 -43 -14 -57 13 -57 23 0 24 3 16 28 -5 15 -10 34
-13 42 -3 10 -8 6 -16 -13z"/>
<path d="M4533 1116 c-10 -45 -10 -46 14 -46 22 0 24 3 18 33 -13 57 -21 60
-32 13z"/>
<path d="M5096 1119 c-9 -46 -8 -49 15 -49 19 0 21 4 15 31 -3 17 -6 35 -6 40
0 23 -18 6 -24 -22z"/>
</g>
</svg>
